<svg width="18" height="19" viewBox="0 0 18 19" fill="none" xmlns="http://www.w3.org/2000/svg">
<path fill-rule="evenodd" clip-rule="evenodd" d="M10 9.91938V1C10 0.447715 9.55229 0 9 0C8.44771 0 8 0.447715 8 1V9.91938L4.62469 7.21913C4.19343 6.87412 3.56414 6.94404 3.21913 7.37531C2.87412 7.80657 2.94404 8.43586 3.37531 8.78087L8.06296 12.531C8.12132 12.5777 8.1823 12.6194 8.24534 12.6561C8.42867 12.8668 8.69878 13 9 13C9.30122 13 9.57132 12.8668 9.75466 12.6561C9.8177 12.6194 9.87868 12.5777 9.93704 12.531L14.6247 8.78087C15.056 8.43586 15.1259 7.80657 14.7809 7.37531C14.4359 6.94404 13.8066 6.87412 13.3753 7.21913L10 9.91938ZM1 12C1.55228 12 2 12.4477 2 13V17H16V13C16 12.4477 16.4477 12 17 12C17.5523 12 18 12.4477 18 13V17.5C18 18.3284 17.3284 19 16.5 19H1.5C0.671573 19 0 18.3284 0 17.5V13C0 12.4477 0.447715 12 1 12Z" fill="black"/>
<path fill-rule="evenodd" clip-rule="evenodd" d="M10 9.91938V1C10 0.447715 9.55229 0 9 0C8.44771 0 8 0.447715 8 1V9.91938L4.62469 7.21913C4.19343 6.87412 3.56414 6.94404 3.21913 7.37531C2.87412 7.80657 2.94404 8.43586 3.37531 8.78087L8.06296 12.531C8.12132 12.5777 8.1823 12.6194 8.24534 12.6561C8.42867 12.8668 8.69878 13 9 13C9.30122 13 9.57132 12.8668 9.75466 12.6561C9.8177 12.6194 9.87868 12.5777 9.93704 12.531L14.6247 8.78087C15.056 8.43586 15.1259 7.80657 14.7809 7.37531C14.4359 6.94404 13.8066 6.87412 13.3753 7.21913L10 9.91938ZM1 12C1.55228 12 2 12.4477 2 13V17H16V13C16 12.4477 16.4477 12 17 12C17.5523 12 18 12.4477 18 13V17.5C18 18.3284 17.3284 19 16.5 19H1.5C0.671573 19 0 18.3284 0 17.5V13C0 12.4477 0.447715 12 1 12Z" fill="#203EDF" fill-opacity="0.3"/>
<path fill-rule="evenodd" clip-rule="evenodd" d="M10 9.91938V1C10 0.447715 9.55229 0 9 0C8.44771 0 8 0.447715 8 1V9.91938L4.62469 7.21913C4.19343 6.87412 3.56414 6.94404 3.21913 7.37531C2.87412 7.80657 2.94404 8.43586 3.37531 8.78087L8.06296 12.531C8.12132 12.5777 8.1823 12.6194 8.24534 12.6561C8.42867 12.8668 8.69878 13 9 13C9.30122 13 9.57132 12.8668 9.75466 12.6561C9.8177 12.6194 9.87868 12.5777 9.93704 12.531L14.6247 8.78087C15.056 8.43586 15.1259 7.80657 14.7809 7.37531C14.4359 6.94404 13.8066 6.87412 13.3753 7.21913L10 9.91938ZM1 12C1.55228 12 2 12.4477 2 13V17H16V13C16 12.4477 16.4477 12 17 12C17.5523 12 18 12.4477 18 13V17.5C18 18.3284 17.3284 19 16.5 19H1.5C0.671573 19 0 18.3284 0 17.5V13C0 12.4477 0.447715 12 1 12Z" fill="white" fill-opacity="0.05"/>
</svg>
