<svg width="18" height="18" viewBox="0 0 18 18" fill="none" xmlns="http://www.w3.org/2000/svg">
<path fill-rule="evenodd" clip-rule="evenodd" d="M7.99996 1.51472C7.99996 0.962434 8.44767 0.514718 8.99996 0.514719C9.55224 0.514718 9.99996 0.962434 9.99996 1.51472L9.99996 8H16.4852C17.0375 8 17.4852 8.44772 17.4852 9C17.4852 9.55228 17.0375 10 16.4852 10H9.99996L9.99996 16.4853C9.99996 17.0376 9.55224 17.4853 8.99996 17.4853C8.44767 17.4853 7.99996 17.0376 7.99996 16.4853L7.99996 10L1.51468 10C0.962393 10 0.514678 9.55228 0.514678 9C0.514678 8.44771 0.962393 8 1.51468 8L7.99996 8L7.99996 1.51472Z" fill="black"/>
<path fill-rule="evenodd" clip-rule="evenodd" d="M7.99996 1.51472C7.99996 0.962434 8.44767 0.514718 8.99996 0.514719C9.55224 0.514718 9.99996 0.962434 9.99996 1.51472L9.99996 8H16.4852C17.0375 8 17.4852 8.44772 17.4852 9C17.4852 9.55228 17.0375 10 16.4852 10H9.99996L9.99996 16.4853C9.99996 17.0376 9.55224 17.4853 8.99996 17.4853C8.44767 17.4853 7.99996 17.0376 7.99996 16.4853L7.99996 10L1.51468 10C0.962393 10 0.514678 9.55228 0.514678 9C0.514678 8.44771 0.962393 8 1.51468 8L7.99996 8L7.99996 1.51472Z" fill="#203EDF" fill-opacity="0.3"/>
<path fill-rule="evenodd" clip-rule="evenodd" d="M7.99996 1.51472C7.99996 0.962434 8.44767 0.514718 8.99996 0.514719C9.55224 0.514718 9.99996 0.962434 9.99996 1.51472L9.99996 8H16.4852C17.0375 8 17.4852 8.44772 17.4852 9C17.4852 9.55228 17.0375 10 16.4852 10H9.99996L9.99996 16.4853C9.99996 17.0376 9.55224 17.4853 8.99996 17.4853C8.44767 17.4853 7.99996 17.0376 7.99996 16.4853L7.99996 10L1.51468 10C0.962393 10 0.514678 9.55228 0.514678 9C0.514678 8.44771 0.962393 8 1.51468 8L7.99996 8L7.99996 1.51472Z" fill="white" fill-opacity="0.05"/>
</svg>
