<?xml version="1.0" encoding="utf-8"?><svg viewBox="0 0 18 19" xmlns="http://www.w3.org/2000/svg" xmlns:xlink="http://www.w3.org/1999/xlink"><style>:root>svg{display:none}:root>svg:target{display:block}</style><svg fill="none" viewBox="0 0 18 19" id="import" xmlns="http://www.w3.org/2000/svg"><path fill-rule="evenodd" clip-rule="evenodd" d="M10 9.92V1a1 1 0 1 0-2 0v8.92l-3.375-2.7a1 1 0 1 0-1.25 1.56l4.688 3.751c.058.047.12.088.182.125a.998.998 0 0 0 1.51 0c.063-.037.124-.078.182-.125l4.688-3.75a1 1 0 1 0-1.25-1.562L10 9.92ZM1 12a1 1 0 0 1 1 1v4h14v-4a1 1 0 1 1 2 0v4.5a1.5 1.5 0 0 1-1.5 1.5h-15A1.5 1.5 0 0 1 0 17.5V13a1 1 0 0 1 1-1Z" fill="#000"/><path fill-rule="evenodd" clip-rule="evenodd" d="M10 9.92V1a1 1 0 1 0-2 0v8.92l-3.375-2.7a1 1 0 1 0-1.25 1.56l4.688 3.751c.058.047.12.088.182.125a.998.998 0 0 0 1.51 0c.063-.037.124-.078.182-.125l4.688-3.75a1 1 0 1 0-1.25-1.562L10 9.92ZM1 12a1 1 0 0 1 1 1v4h14v-4a1 1 0 1 1 2 0v4.5a1.5 1.5 0 0 1-1.5 1.5h-15A1.5 1.5 0 0 1 0 17.5V13a1 1 0 0 1 1-1Z" fill="#203EDF" fill-opacity=".3"/><path fill-rule="evenodd" clip-rule="evenodd" d="M10 9.92V1a1 1 0 1 0-2 0v8.92l-3.375-2.7a1 1 0 1 0-1.25 1.56l4.688 3.751c.058.047.12.088.182.125a.998.998 0 0 0 1.51 0c.063-.037.124-.078.182-.125l4.688-3.75a1 1 0 1 0-1.25-1.562L10 9.92ZM1 12a1 1 0 0 1 1 1v4h14v-4a1 1 0 1 1 2 0v4.5a1.5 1.5 0 0 1-1.5 1.5h-15A1.5 1.5 0 0 1 0 17.5V13a1 1 0 0 1 1-1Z" fill="#fff" fill-opacity=".05"/></svg><svg fill="none" viewBox="0 0 18 18" id="plus" xmlns="http://www.w3.org/2000/svg"><path fill-rule="evenodd" clip-rule="evenodd" d="M8 1.515a1 1 0 1 1 2 0V8h6.485a1 1 0 1 1 0 2H10v6.485a1 1 0 1 1-2 0V10H1.515a1 1 0 0 1 0-2H8V1.515Z" fill="#000"/><path fill-rule="evenodd" clip-rule="evenodd" d="M8 1.515a1 1 0 1 1 2 0V8h6.485a1 1 0 1 1 0 2H10v6.485a1 1 0 1 1-2 0V10H1.515a1 1 0 0 1 0-2H8V1.515Z" fill="#203EDF" fill-opacity=".3"/><path fill-rule="evenodd" clip-rule="evenodd" d="M8 1.515a1 1 0 1 1 2 0V8h6.485a1 1 0 1 1 0 2H10v6.485a1 1 0 1 1-2 0V10H1.515a1 1 0 0 1 0-2H8V1.515Z" fill="#fff" fill-opacity=".05"/></svg></svg>