<svg width="10" height="10" viewBox="0 0 10 10" fill="none" xmlns="http://www.w3.org/2000/svg">
<path d="M4 9C3.99996 9.09292 4.02581 9.18401 4.07465 9.26305C4.12349 9.34209 4.19339 9.40597 4.2765 9.4475L5.2765 9.9475C5.35275 9.9856 5.43747 10.0036 5.52262 9.99972C5.60778 9.99586 5.69053 9.9703 5.76302 9.92547C5.83551 9.88063 5.89534 9.818 5.93681 9.74354C5.97829 9.66907 6.00004 9.58524 6 9.5V6C6.00011 5.75219 6.09223 5.51325 6.2585 5.3295L9.87 1.335C9.93473 1.26328 9.9773 1.17434 9.99255 1.07894C10.0078 0.983542 9.99509 0.885766 9.95595 0.797437C9.91681 0.709109 9.85292 0.634011 9.77201 0.581226C9.69109 0.52844 9.59661 0.500228 9.5 0.5H0.500003C0.403306 0.500035 0.308695 0.528108 0.227628 0.580818C0.146561 0.633529 0.0825175 0.708615 0.0432551 0.796981C0.00399278 0.885348 -0.00880396 0.983204 0.00641517 1.0787C0.0216343 1.17419 0.0642162 1.26322 0.129003 1.335L3.7415 5.3295C3.90777 5.51325 3.99989 5.75219 4 6V9Z" fill="#727272"/>
</svg>
